OpenSim_Sub08_CSBaseline_RCS.mot
version=1
nRows=26
nColumns=11
inDegrees=no
endheader
time	Top_Thigh	Med_Thigh	Bot_Thigh	Top_Shank	2nd_Top_Shank	2nd_Bot_Shank	Bot_Shank	BNOx	BNOy	BNOZ
40.95000000	1785.39649950	1711.28496236	1465.71688166	1330.97868405	1326.76051094	1302.10733407	1141.13534149	33.37200077	-69.59278237	-155.92434143
40.96000000	1783.35738964	1709.54075166	1467.16198204	1330.77712238	1328.03591962	1301.70885108	1140.77620929	29.35513872	-68.99505266	-165.85082982
40.97000000	1781.29595545	1707.15056024	1468.51748206	1329.94501499	1329.43631447	1301.61597815	1141.14437841	25.50096366	-68.12688103	-167.32271708
40.98000000	1779.41609221	1704.37737283	1469.50736938	1328.72292865	1330.84290144	1301.75955101	1142.12338637	21.90246976	-67.09773562	-162.58624862
40.99000000	1777.92206790	1701.48480207	1469.85536554	1327.35196966	1332.13672527	1302.07021013	1143.59638487	18.65276601	-66.01727246	-153.89336477
41.00000000	1777.01815048	1698.73646058	1469.28519210	1326.07324431	1333.19883073	1302.47859597	1145.44652565	15.84496135	-64.99514760	-143.49600584
41.01000000	1776.90860794	1696.39596098	1467.52057058	1325.12785893	1333.91026254	1302.91534898	1147.55696042	13.57216476	-64.14101706	-133.64611216
41.02000000	1777.76677910	1694.70284992	1464.33933354	1324.72874084	1334.16993078	1303.31648511	1149.81031280	11.91236197	-63.55166955	-126.36691884
41.03000000	1779.53741712	1693.71881130	1459.91922768	1324.88055728	1334.00878140	1303.65774855	1152.08530351	10.83176866	-63.22879622	-121.99138658
41.04000000	1782.06282234	1693.42581045	1454.61724241	1325.49463269	1333.51693926	1303.93268976	1154.25890395	10.24650482	-63.13146522	-120.09489007
41.05000000	1785.18481188	1693.80543664	1448.79121261	1326.48185118	1332.78480832	1304.13494322	1156.20807728	10.07245414	-63.21854364	-120.24923048
41.06000000	1788.74520283	1694.83927916	1442.79897318	1327.75309691	1331.90279258	1304.25814340	1157.80978665	10.22550033	-63.44889855	-122.02620900
41.07000000	1792.58581229	1696.50892729	1436.99835900	1329.21925399	1330.96129603	1304.29592477	1158.94099522	10.62152708	-63.78139706	-124.99762679
41.08000000	1796.54845735	1698.79597033	1431.74720497	1330.79120657	1330.05072264	1304.24192181	1159.47866613	11.17641808	-64.17490625	-128.73528504
41.09000000	1800.47495511	1701.68199754	1427.40334597	1332.37983878	1329.26147640	1304.08976897	1159.29976255	11.80605704	-64.58829321	-132.81098493
41.10000000	1804.21414206	1705.14544890	1424.30863526	1333.89823447	1328.67949177	1303.83375005	1158.29177063	12.42975762	-64.98191236	-136.81165659
41.11000000	1807.71988549	1709.11764106	1422.56579332	1335.29239194	1328.32382587	1303.47786437	1156.49963187	13.01815594	-65.33837293	-140.55060453
41.12000000	1811.02690564	1713.49361511	1422.09345578	1336.53364707	1328.16205350	1303.03359033	1154.08949722	13.58139628	-65.65741595	-144.01539661
41.13000000	1814.17200257	1718.16747898	1422.80552299	1337.59398749	1328.16042514	1302.51259868	1151.23063552	14.13063920	-65.93922315	-147.19808340
41.14000000	1817.19197631	1723.03334061	1424.61589525	1338.44540088	1328.28519131	1301.92656022	1148.09231566	14.67704526	-66.18397624	-150.09071543
41.15000000	1820.12362694	1727.98530793	1427.43847291	1339.05987486	1328.50260250	1301.28714571	1144.84380647	15.23177502	-66.39185695	-152.68534326
41.16000000	1823.00375449	1732.91748889	1431.18715629	1339.40939709	1328.77890920	1300.60602593	1141.65437683	15.80598902	-66.56304701	-154.97401743
41.17000000	1825.86915902	1737.72399142	1435.77584572	1339.46595522	1329.08036191	1299.89487164	1138.69329561	16.41084784	-66.69772812	-156.94878849
41.18000000	1828.75664058	1742.29892347	1441.11844154	1339.20153691	1329.37321113	1299.16535364	1136.12983165	17.05751203	-66.79608202	-158.60170699
41.19000000	1831.70299922	1746.53639296	1447.12884405	1338.58812979	1329.62370736	1298.42914268	1134.13325383	17.75714215	-66.85829043	-159.92482347
41.20000000	1834.74503499	1750.33050784	1453.72095361	1337.59772152	1329.79810109	1297.69790955	1132.87283100	18.52089876	-66.88453507	-160.91018849
